<svg width="522" height="149" viewBox="0 0 522 149" fill="none" xmlns="http://www.w3.org/2000/svg">
<path fill-rule="evenodd" clip-rule="evenodd" d="M148 7H17V16H91C94.3137 16 97 18.6863 97 22C97 25.3137 94.3137 28 91 28H17V34H105C108.314 34 111 36.6863 111 40C111 43.3137 108.314 46 105 46H17V54H130C133.314 54 136 56.6863 136 60C136 63.3137 133.314 66 130 66H17V72H152C154.768 72 157.098 73.874 157.79 76.4223C170.113 72.3237 179 60.6996 179 47V38C179 20.8792 165.121 7 148 7ZM157.79 79.5777C157.098 82.126 154.768 84 152 84H19V90H130C133.314 90 136 92.6863 136 96C136 99.3137 133.314 102 130 102H19V110H102C105.314 110 108 112.686 108 116C108 119.314 105.314 122 102 122H19V128H89C92.3137 128 95 130.686 95 134C95 137.314 92.3137 140 89 140H19V149H148C165.121 149 179 135.121 179 118V109C179 95.3004 170.113 83.6763 157.79 79.5777Z" fill="white"/>
<rect x="15" y="84" width="121" height="6" rx="3" fill="white"/>
<rect x="13" y="66" width="123" height="6" rx="3" fill="white"/>
<rect x="58" y="95" width="22" height="18" fill="black"/>
<rect x="12" y="113" width="54" height="18" fill="black"/>
<rect x="4" y="131" width="54" height="18" fill="black"/>
<rect width="22" height="18" transform="matrix(1 0 0 -1 54 54)" fill="black"/>
<rect width="54" height="18" transform="matrix(1 0 0 -1 8 36)" fill="black"/>
<rect width="54" height="18" transform="matrix(1 0 0 -1 0 18)" fill="black"/>
<rect x="13" y="46" width="47" height="8" rx="4" fill="white"/>
<rect x="13" y="102" width="47" height="8" rx="4" fill="white"/>
<rect x="51" y="140" width="47" height="9" rx="4.5" fill="white"/>
<rect x="62" y="122" width="47" height="6" rx="3" fill="white"/>
<rect x="76" y="102" width="47" height="8" rx="4" fill="white"/>
<rect width="47" height="9" rx="4.5" transform="matrix(1 0 0 -1 48 16)" fill="white"/>
<rect width="47" height="6" rx="3" transform="matrix(1 0 0 -1 59 34)" fill="white"/>
<rect width="47" height="8" rx="4" transform="matrix(1 0 0 -1 73 54)" fill="white"/>
<path d="M195.131 52.3023V14.5068H207.674C210.227 14.5068 212.373 14.8768 214.112 15.6168C215.888 16.3198 217.238 17.4298 218.163 18.9468C219.088 20.4268 219.551 22.3138 219.551 24.6078C219.551 26.5318 219.07 28.2338 218.108 29.7138C217.146 31.1938 215.869 32.3408 214.278 33.1548C212.724 33.9688 211.041 34.3758 209.228 34.3758L209.616 31.4898C211.873 31.4898 213.834 31.8968 215.499 32.7108C217.201 33.4878 218.533 34.6348 219.495 36.1518C220.457 37.6688 220.938 39.5188 220.938 41.7018C220.938 45.1428 219.865 47.7698 217.719 49.5828C215.61 51.3958 212.576 52.3023 208.617 52.3023H195.131ZM200.681 18.0033V48.4173L198.461 46.9743H208.784C210.856 46.9743 212.447 46.4378 213.557 45.3648C214.704 44.2548 215.277 42.8488 215.277 41.1468C215.277 39.2228 214.722 37.7613 213.612 36.7623C212.539 35.7633 210.967 35.2638 208.895 35.2638H198.461V30.1578H207.84C209.801 30.1578 211.3 29.7323 212.336 28.8813C213.372 27.9933 213.89 26.7168 213.89 25.0518C213.89 23.5348 213.353 22.2953 212.28 21.3333C211.244 20.3343 209.764 19.8348 207.84 19.8348H198.683L200.681 18.0033Z" fill="white"/>
<path d="M225.357 33.4323C225.357 30.6203 225.838 28.0303 226.8 25.6623C227.799 23.2943 229.186 21.2408 230.962 19.5018C232.738 17.7628 234.81 16.4123 237.178 15.4503C239.583 14.4883 242.192 14.0073 245.004 14.0073C247.779 14.0073 250.35 14.4883 252.718 15.4503C255.086 16.4123 257.14 17.7628 258.879 19.5018C260.655 21.2408 262.024 23.2943 262.986 25.6623C263.985 28.0303 264.484 30.6203 264.484 33.4323C264.484 36.2073 263.985 38.7788 262.986 41.1468C262.024 43.5148 260.655 45.5868 258.879 47.3628C257.14 49.1018 255.086 50.4523 252.718 51.4143C250.35 52.3763 247.779 52.8573 245.004 52.8573C242.192 52.8573 239.583 52.3763 237.178 51.4143C234.81 50.4523 232.738 49.1018 230.962 47.3628C229.186 45.5868 227.799 43.5148 226.8 41.1468C225.838 38.7788 225.357 36.2073 225.357 33.4323ZM231.018 33.4323C231.018 36.1333 231.628 38.5568 232.849 40.7028C234.07 42.8118 235.735 44.4768 237.844 45.6978C239.953 46.9188 242.34 47.5293 245.004 47.5293C247.668 47.5293 250.036 46.9188 252.108 45.6978C254.18 44.4768 255.808 42.8118 256.992 40.7028C258.213 38.5568 258.823 36.1333 258.823 33.4323C258.823 30.6943 258.213 28.2708 256.992 26.1618C255.808 24.0528 254.18 22.3878 252.108 21.1668C250.036 19.9458 247.668 19.3353 245.004 19.3353C242.34 19.3353 239.953 19.9458 237.844 21.1668C235.735 22.3878 234.07 24.0528 232.849 26.1618C231.628 28.2708 231.018 30.6943 231.018 33.4323Z" fill="white"/>
<path d="M284.951 52.8573C282.102 52.8573 279.567 52.3023 277.347 51.1923C275.164 50.0823 273.444 48.4358 272.186 46.2528C270.928 44.0328 270.299 41.3133 270.299 38.0943V14.5068H275.849V37.2618C275.849 40.5178 276.626 43.0523 278.18 44.8653C279.771 46.6413 282.028 47.5293 284.951 47.5293C287.911 47.5293 290.168 46.6413 291.722 44.8653C293.276 43.0523 294.053 40.5178 294.053 37.2618V14.5068H299.603V38.0943C299.603 41.3133 298.974 44.0328 297.716 46.2528C296.458 48.4358 294.719 50.0823 292.499 51.1923C290.316 52.3023 287.8 52.8573 284.951 52.8573Z" fill="white"/>
<path d="M306.067 52.3023L313.005 14.5068H317.944L328.323 42.0903H328.489L338.868 14.5068H343.807L350.745 52.3023H344.917L341.865 34.3203C341.421 31.7303 341.051 29.1773 340.755 26.6613C340.459 24.1083 340.274 21.5553 340.2 19.0023H341.587C340.921 22.0733 340.218 24.7743 339.478 27.1053C338.775 29.4363 337.961 31.8413 337.036 34.3203L330.543 51.6918H326.269L319.776 34.3203C318.851 31.8043 318.018 29.3993 317.278 27.1053C316.575 24.7743 315.891 22.0733 315.225 19.0023H316.612C316.538 21.5553 316.353 24.1083 316.057 26.6613C315.761 29.1773 315.391 31.7303 314.947 34.3203L311.895 52.3023H306.067Z" fill="white"/>
<path d="M360.954 38.2608H381.323V43.4778H360.954V38.2608ZM353.85 52.3023L367.337 14.5068H374.885L388.371 52.3023H382.71L370.611 18.3918H371.61L359.511 52.3023H353.85Z" fill="white"/>
<path d="M393.121 52.3023V14.5068H406.996C409.586 14.5068 411.843 15.0618 413.767 16.1718C415.728 17.2448 417.245 18.7063 418.318 20.5563C419.391 22.4063 419.927 24.4783 419.927 26.7723C419.927 29.0663 419.391 31.1383 418.318 32.9883C417.245 34.8383 415.728 36.2998 413.767 37.3728C411.843 38.4458 409.586 38.9823 406.996 38.9823H397.672V33.7653H406.052C408.494 33.7653 410.455 33.1548 411.935 31.9338C413.415 30.6758 414.155 28.9553 414.155 26.7723C414.155 24.4413 413.415 22.6838 411.935 21.4998C410.455 20.3158 408.494 19.7238 406.052 19.7238H397.616L398.671 18.4473V52.3023H393.121ZM414.211 52.3023L405.386 36.5958H411.491L420.316 52.3023H414.211Z" fill="white"/>
<path d="M427.537 52.3023V14.5068H439.969C443.595 14.5068 446.833 15.2653 449.682 16.7823C452.531 18.2993 454.769 20.4823 456.397 23.3313C458.025 26.1433 458.839 29.5288 458.839 33.4878C458.839 37.5208 458.007 40.9433 456.342 43.7553C454.714 46.5303 452.475 48.6578 449.626 50.1378C446.777 51.5808 443.54 52.3023 439.914 52.3023H427.537ZM433.087 48.3063L431.422 47.0853H439.636C442.115 47.0853 444.354 46.6043 446.352 45.6423C448.387 44.6433 450.015 43.1448 451.236 41.1468C452.457 39.1488 453.067 36.5958 453.067 33.4878C453.067 30.4908 452.457 27.9748 451.236 25.9398C450.052 23.8678 448.442 22.3138 446.407 21.2778C444.409 20.2418 442.171 19.7238 439.692 19.7238H431.034L433.087 17.7258V48.3063Z" fill="white"/>
<path d="M469.646 35.9298V30.7128H484.908V35.9298H469.646ZM469.479 19.7238L470.756 17.9478V47.9178L469.202 47.0298H488.183V52.3023H465.206V14.5068H488.183V19.7238H469.479Z" fill="white"/>
<path d="M507.05 53.1348C505.089 53.1348 503.183 52.8388 501.333 52.2468C499.52 51.6548 497.855 50.6928 496.338 49.3608C494.821 47.9918 493.545 46.1418 492.509 43.8108L497.115 41.2023C498.41 43.5333 499.835 45.2168 501.389 46.2528C502.943 47.2888 504.885 47.8068 507.216 47.8068C509.473 47.8068 511.175 47.3073 512.322 46.3083C513.506 45.3093 514.098 43.9403 514.098 42.2013C514.098 41.1653 513.839 40.2588 513.321 39.4818C512.84 38.7048 511.971 37.9833 510.713 37.3173C509.455 36.6513 507.679 36.0408 505.385 35.4858C502.499 34.7458 500.242 33.8393 498.614 32.7663C497.023 31.6563 495.913 30.3983 495.284 28.9923C494.655 27.5493 494.34 25.9953 494.34 24.3303C494.34 22.2583 494.821 20.4638 495.783 18.9468C496.745 17.3928 498.133 16.1903 499.946 15.3393C501.759 14.4513 503.905 14.0073 506.384 14.0073C509.344 14.0073 511.786 14.5808 513.71 15.7278C515.634 16.8378 517.262 18.3733 518.594 20.3343L513.932 23.3313C512.785 21.9253 511.582 20.9263 510.324 20.3343C509.103 19.7053 507.79 19.3908 506.384 19.3908C504.238 19.3908 502.591 19.8163 501.444 20.6673C500.334 21.5183 499.779 22.7393 499.779 24.3303C499.779 25.6993 500.297 26.8833 501.333 27.8823C502.406 28.8813 504.478 29.7508 507.549 30.4908C510.657 31.2678 513.081 32.1928 514.82 33.2658C516.596 34.3018 517.835 35.5598 518.538 37.0398C519.278 38.4828 519.648 40.2218 519.648 42.2568C519.648 44.2918 519.13 46.1233 518.094 47.7513C517.058 49.3793 515.597 50.6928 513.71 51.6918C511.823 52.6538 509.603 53.1348 507.05 53.1348Z" fill="white"/>
<path d="M207.749 113.993C205.516 113.993 203.4 113.66 201.402 112.994C199.404 112.328 197.602 111.289 195.996 109.879C194.429 108.469 193.097 106.627 192 104.355L198.112 100.653C199.326 102.729 200.756 104.277 202.401 105.295C204.047 106.314 205.947 106.823 208.102 106.823C210.06 106.823 211.549 106.412 212.568 105.589C213.586 104.727 214.096 103.591 214.096 102.181C214.096 101.28 213.86 100.516 213.39 99.889C212.959 99.223 212.176 98.5962 211.04 98.0086C209.904 97.4209 208.258 96.892 206.104 96.4219C202.891 95.6384 200.364 94.659 198.523 93.4837C196.721 92.3084 195.448 90.9372 194.703 89.3701C193.959 87.7639 193.587 86.001 193.587 84.0813C193.587 81.7699 194.135 79.7523 195.232 78.0286C196.368 76.2656 197.974 74.8749 200.051 73.8563C202.127 72.8377 204.595 72.3284 207.455 72.3284C210.746 72.3284 213.508 72.9748 215.741 74.2676C217.974 75.5213 219.796 77.2254 221.206 79.3801L215.095 83.5524C213.998 82.1421 212.744 81.1431 211.334 80.5554C209.962 79.9286 208.552 79.6152 207.103 79.6152C205.222 79.6152 203.773 79.9874 202.754 80.7317C201.775 81.4761 201.285 82.5143 201.285 83.8463C201.285 85.0216 201.775 86.0401 202.754 86.902C203.773 87.7247 205.731 88.4887 208.63 89.1939C211.921 89.9774 214.546 90.9372 216.505 92.0733C218.464 93.2094 219.854 94.5806 220.677 96.1869C221.539 97.7931 221.97 99.7323 221.97 102.005C221.97 104.277 221.382 106.314 220.207 108.116C219.071 109.918 217.426 111.348 215.271 112.406C213.155 113.464 210.648 113.993 207.749 113.993Z" fill="white"/>
<path d="M225.169 113.052L232.338 73.0336H239.213L249.262 101.006H249.027L259.076 73.0336H265.951L273.121 113.052H265.305L262.425 94.7765C261.994 92.3084 261.622 89.8403 261.309 87.3722C261.035 84.8649 260.819 82.3772 260.662 79.909H262.778C262.112 82.6906 261.446 85.2566 260.78 87.6072C260.153 89.9186 259.409 92.2888 258.547 94.7177L252.142 112.523H246.148L239.742 94.7177C238.88 92.2888 238.116 89.9186 237.45 87.6072C236.784 85.2566 236.138 82.6906 235.511 79.909H237.568C237.45 82.3772 237.235 84.8649 236.921 87.3722C236.647 89.8403 236.295 92.3084 235.864 94.7765L232.984 113.052H225.169Z" fill="white"/>
<path d="M283.825 97.8323H303.57V105.002H283.825V97.8323ZM275.481 113.052L289.702 73.0336H298.693L312.444 113.052H304.687L293.11 78.3224H295.343L283.238 113.052H275.481Z" fill="white"/>
<path d="M316.587 113.052V73.0336H331.337C334.158 73.0336 336.665 73.6016 338.859 74.7377C341.053 75.8739 342.757 77.4605 343.971 79.4977C345.225 81.5349 345.852 83.9246 345.852 86.667C345.852 89.4093 345.225 91.7991 343.971 93.8363C342.757 95.8734 341.053 97.4601 338.859 98.5962C336.665 99.6931 334.158 100.242 331.337 100.242H322.699V92.896H330.573C332.845 92.896 334.647 92.3671 335.979 91.3094C337.311 90.2124 337.977 88.665 337.977 86.667C337.977 84.5906 337.311 83.0236 335.979 81.9658C334.647 80.908 332.845 80.3792 330.573 80.3792H322.64L324.285 78.675V113.052H316.587ZM337.86 113.052L329.045 96.657H337.507L346.263 113.052H337.86Z" fill="white"/>
<path d="M360.576 113.052V77.2059H368.333V113.052H360.576ZM348.529 80.3792V73.0336H380.732V80.3792H348.529Z" fill="white"/>
<path d="M418.29 113.758C414.177 113.758 410.592 112.876 407.537 111.113C404.52 109.311 402.169 106.862 400.485 103.768C398.839 100.633 398.017 97.0683 398.017 93.0723C398.017 90.0557 398.506 87.2938 399.486 84.7865C400.504 82.24 401.915 80.0462 403.717 78.2049C405.558 76.3636 407.713 74.9336 410.181 73.915C412.649 72.8964 415.352 72.3872 418.29 72.3872C422.952 72.3872 426.772 73.3862 429.75 75.3842C432.727 77.3822 435.058 80.1637 436.743 83.7287L429.573 86.3144C428.124 83.9638 426.478 82.2988 424.637 81.3194C422.796 80.34 420.68 79.8503 418.29 79.8503C415.901 79.8503 413.766 80.4183 411.885 81.5544C410.044 82.6514 408.575 84.1989 407.478 86.1969C406.42 88.1557 405.891 90.4475 405.891 93.0723C405.891 95.658 406.42 97.9498 407.478 99.9478C408.575 101.946 410.044 103.513 411.885 104.649C413.766 105.746 415.901 106.294 418.29 106.294C420.68 106.294 422.796 105.805 424.637 104.825C426.478 103.846 428.124 102.181 429.573 99.8303L436.743 102.416C435.058 105.981 432.727 108.763 429.75 110.761C426.772 112.759 422.952 113.758 418.29 113.758Z" fill="white"/>
<path d="M449.447 113.052H441.749V73.0336H449.447V113.052Z" fill="white"/>
<path d="M466.054 113.052V77.2059H473.811V113.052H466.054ZM454.007 80.3792V73.0336H486.211V80.3792H454.007Z" fill="white"/>
<path d="M506.094 94.7177H502.098L513.028 73.0336H521.432L507.211 100.242L507.916 95.3054V113.052H500.218V95.3054L500.805 100.242L486.702 73.0336H495.223L506.094 94.7177Z" fill="white"/>
<path d="M198.594 143.087C197.763 143.087 196.995 142.951 196.291 142.677C195.586 142.393 194.976 141.999 194.461 141.494C193.945 140.989 193.541 140.395 193.246 139.712C192.962 139.028 192.82 138.281 192.82 137.472C192.82 136.662 192.962 135.915 193.246 135.232C193.541 134.548 193.945 133.954 194.461 133.449C194.987 132.945 195.602 132.555 196.306 132.282C197.011 131.998 197.779 131.856 198.609 131.856C199.409 131.856 200.161 131.993 200.865 132.266C201.57 132.529 202.164 132.929 202.648 133.465L201.906 134.206C201.454 133.744 200.954 133.412 200.408 133.213C199.861 133.002 199.272 132.897 198.641 132.897C197.978 132.897 197.363 133.013 196.795 133.244C196.227 133.465 195.733 133.786 195.313 134.206C194.892 134.617 194.561 135.1 194.319 135.658C194.087 136.205 193.972 136.809 193.972 137.472C193.972 138.134 194.087 138.744 194.319 139.302C194.561 139.848 194.892 140.332 195.313 140.753C195.733 141.163 196.227 141.484 196.795 141.715C197.363 141.936 197.978 142.046 198.641 142.046C199.272 142.046 199.861 141.941 200.408 141.731C200.954 141.52 201.454 141.184 201.906 140.721L202.648 141.463C202.164 141.999 201.57 142.404 200.865 142.677C200.161 142.951 199.403 143.087 198.594 143.087ZM219.827 143.087C218.997 143.087 218.224 142.951 217.508 142.677C216.804 142.393 216.189 141.999 215.663 141.494C215.148 140.979 214.743 140.385 214.448 139.712C214.164 139.028 214.022 138.281 214.022 137.472C214.022 136.662 214.164 135.921 214.448 135.248C214.743 134.564 215.148 133.97 215.663 133.465C216.189 132.95 216.804 132.555 217.508 132.282C218.213 131.998 218.986 131.856 219.827 131.856C220.658 131.856 221.426 131.998 222.13 132.282C222.835 132.555 223.445 132.945 223.96 133.449C224.486 133.954 224.891 134.548 225.175 135.232C225.469 135.915 225.616 136.662 225.616 137.472C225.616 138.281 225.469 139.028 225.175 139.712C224.891 140.395 224.486 140.989 223.96 141.494C223.445 141.999 222.835 142.393 222.13 142.677C221.426 142.951 220.658 143.087 219.827 143.087ZM219.827 142.046C220.49 142.046 221.1 141.936 221.657 141.715C222.225 141.484 222.714 141.163 223.124 140.753C223.545 140.332 223.871 139.848 224.102 139.302C224.333 138.744 224.449 138.134 224.449 137.472C224.449 136.809 224.333 136.205 224.102 135.658C223.871 135.1 223.545 134.617 223.124 134.206C222.714 133.786 222.225 133.465 221.657 133.244C221.1 133.013 220.49 132.897 219.827 132.897C219.165 132.897 218.55 133.013 217.982 133.244C217.414 133.465 216.92 133.786 216.499 134.206C216.089 134.617 215.763 135.1 215.521 135.658C215.29 136.205 215.174 136.809 215.174 137.472C215.174 138.124 215.29 138.728 215.521 139.286C215.763 139.843 216.089 140.332 216.499 140.753C216.92 141.163 217.414 141.484 217.982 141.715C218.55 141.936 219.165 142.046 219.827 142.046ZM238.328 142.993V131.951H242.824C244.002 131.951 245.032 132.187 245.916 132.661C246.81 133.123 247.504 133.77 247.998 134.601C248.492 135.432 248.739 136.389 248.739 137.472C248.739 138.555 248.492 139.512 247.998 140.343C247.504 141.173 246.81 141.825 245.916 142.299C245.032 142.761 244.002 142.993 242.824 142.993H238.328ZM239.496 141.983H242.761C243.739 141.983 244.585 141.794 245.301 141.415C246.026 141.026 246.589 140.495 246.988 139.822C247.388 139.139 247.588 138.355 247.588 137.472C247.588 136.578 247.388 135.794 246.988 135.121C246.589 134.448 246.026 133.923 245.301 133.544C244.585 133.155 243.739 132.96 242.761 132.96H239.496V141.983ZM262.497 136.888H268.334V137.882H262.497V136.888ZM262.623 141.983H269.264V142.993H261.456V131.951H269.028V132.96H262.623V141.983ZM297.369 137.298H303.205V138.308H297.369V137.298ZM297.495 142.993H296.327V131.951H303.899V132.96H297.495V142.993ZM321.093 143.087C320.263 143.087 319.49 142.951 318.774 142.677C318.07 142.393 317.455 141.999 316.929 141.494C316.414 140.979 316.009 140.385 315.714 139.712C315.43 139.028 315.288 138.281 315.288 137.472C315.288 136.662 315.43 135.921 315.714 135.248C316.009 134.564 316.414 133.97 316.929 133.465C317.455 132.95 318.07 132.555 318.774 132.282C319.479 131.998 320.252 131.856 321.093 131.856C321.924 131.856 322.692 131.998 323.396 132.282C324.101 132.555 324.711 132.945 325.226 133.449C325.752 133.954 326.157 134.548 326.441 135.232C326.735 135.915 326.882 136.662 326.882 137.472C326.882 138.281 326.735 139.028 326.441 139.712C326.157 140.395 325.752 140.989 325.226 141.494C324.711 141.999 324.101 142.393 323.396 142.677C322.692 142.951 321.924 143.087 321.093 143.087ZM321.093 142.046C321.756 142.046 322.366 141.936 322.923 141.715C323.491 141.484 323.98 141.163 324.39 140.753C324.811 140.332 325.137 139.848 325.368 139.302C325.599 138.744 325.715 138.134 325.715 137.472C325.715 136.809 325.599 136.205 325.368 135.658C325.137 135.1 324.811 134.617 324.39 134.206C323.98 133.786 323.491 133.465 322.923 133.244C322.366 133.013 321.756 132.897 321.093 132.897C320.431 132.897 319.816 133.013 319.248 133.244C318.68 133.465 318.186 133.786 317.765 134.206C317.355 134.617 317.029 135.1 316.787 135.658C316.556 136.205 316.44 136.809 316.44 137.472C316.44 138.124 316.556 138.728 316.787 139.286C317.029 139.843 317.355 140.332 317.765 140.753C318.186 141.163 318.68 141.484 319.248 141.715C319.816 141.936 320.431 142.046 321.093 142.046ZM339.594 142.993V131.951H343.727C344.663 131.951 345.468 132.103 346.141 132.408C346.814 132.703 347.329 133.134 347.686 133.702C348.055 134.259 348.239 134.937 348.239 135.737C348.239 136.515 348.055 137.188 347.686 137.756C347.329 138.313 346.814 138.744 346.141 139.049C345.468 139.344 344.663 139.491 343.727 139.491H340.241L340.762 138.954V142.993H339.594ZM347.134 142.993L344.295 138.986H345.557L348.412 142.993H347.134ZM340.762 139.049L340.241 138.497H343.696C344.8 138.497 345.636 138.255 346.204 137.771C346.782 137.288 347.071 136.609 347.071 135.737C347.071 134.853 346.782 134.17 346.204 133.686C345.636 133.202 344.8 132.96 343.696 132.96H340.241L340.762 132.408V139.049ZM377.458 142.993V132.96H373.578V131.951H382.506V132.96H378.626V142.993H377.458ZM402.543 131.951H403.694V142.993H402.543V131.951ZM395.634 142.993H394.466V131.951H395.634V142.993ZM402.653 137.898H395.507V136.872H402.653V137.898ZM418.435 136.888H424.271V137.882H418.435V136.888ZM418.561 141.983H425.202V142.993H417.394V131.951H424.965V132.96H418.561V141.983ZM457.061 143.087C456.23 143.087 455.462 142.951 454.757 142.677C454.053 142.393 453.443 141.999 452.928 141.494C452.412 140.989 452.008 140.395 451.713 139.712C451.429 139.028 451.287 138.281 451.287 137.472C451.287 136.662 451.429 135.915 451.713 135.232C452.008 134.548 452.412 133.954 452.928 133.449C453.453 132.945 454.069 132.555 454.773 132.282C455.478 131.998 456.246 131.856 457.076 131.856C457.876 131.856 458.627 131.993 459.332 132.266C460.037 132.529 460.631 132.929 461.114 133.465L460.373 134.206C459.921 133.744 459.421 133.412 458.875 133.213C458.328 133.002 457.739 132.897 457.108 132.897C456.445 132.897 455.83 133.013 455.262 133.244C454.694 133.465 454.2 133.786 453.779 134.206C453.359 134.617 453.028 135.1 452.786 135.658C452.554 136.205 452.439 136.809 452.439 137.472C452.439 138.134 452.554 138.744 452.786 139.302C453.028 139.848 453.359 140.332 453.779 140.753C454.2 141.163 454.694 141.484 455.262 141.715C455.83 141.936 456.445 142.046 457.108 142.046C457.739 142.046 458.328 141.941 458.875 141.731C459.421 141.52 459.921 141.184 460.373 140.721L461.114 141.463C460.631 141.999 460.037 142.404 459.332 142.677C458.627 142.951 457.87 143.087 457.061 143.087ZM473.698 142.993V131.951H474.866V142.993H473.698ZM490.699 142.993V132.96H486.819V131.951H495.747V132.96H491.866V142.993H490.699ZM510.264 142.993V138.891L510.533 139.617L505.848 131.951H507.094L511.211 138.686H510.548L514.665 131.951H515.833L511.148 139.617L511.416 138.891V142.993H510.264Z" fill="white"/>
</svg>
